# xmcd
# Copyright (C) 1995-1998 Ti Kan
#
# Track frame offsets:
#       150
#       10200
#       22654
#       34573
#       49180
#       60664
#       70228
#       87408
#       101735
#       114077
#       129313
#       138662
#
# Disc length: 2009 seconds
#
# Revision: 0
# Processed by: cddbd v1.5.2PL0 Copyright (c) Steve Scherf et al.
# Submitted via: CD-Transfer v1.0
#
DISCID=9507d70c
DTITLE=Mighty Mighty Bosstones, The - Berrett, Brockenborough, Gittleman, Bosstones
DYEAR=97
DGENRE=
TTITLE0=Noise Brigade
TTITLE1=Rascal King, The
TTITLE2=Royal Oil
TTITLE3=Imprssions That I Get, The
TTITLE4=Let's Face It
TTITLE5=That Bug Bit Me
TTITLE6=Another Drinkin' Song
TTITLE7=Numbered Days
TTITLE8=Break So Easily
TTITLE9=Nevermind Me
TTITLE10=Desensitized
TTITLE11=1-2-8
EXTD=
EXTT0=
EXTT1=
EXTT2=
EXTT3=
EXTT4=
EXTT5=
EXTT6=
EXTT7=
EXTT8=
EXTT9=
EXTT10=
EXTT11=
PLAYORDER=
